<?xml version="1.0" standalone="no"?><svg xmlns="http://www.w3.org/2000/svg" viewBox="0 0 1440 320"><path fill="#ff735c" fill-opacity="1" d="M0,96L34.3,106.7C68.6,117,137,139,206,133.3C274.3,128,343,96,411,85.3C480,75,549,85,617,96C685.7,107,754,117,823,144C891.4,171,960,213,1029,213.3C1097.1,213,1166,171,1234,154.7C1302.9,139,1371,149,1406,154.7L1440,160L1440,0L1405.7,0C1371.4,0,1303,0,1234,0C1165.7,0,1097,0,1029,0C960,0,891,0,823,0C754.3,0,686,0,617,0C548.6,0,480,0,411,0C342.9,0,274,0,206,0C137.1,0,69,0,34,0L0,0Z"></path></svg>